PathFileType	4	(X/Y/Z)	S:\OneDrive - The University of Tokyo\ìåëÂéˆã∆\ÉoÉCÉÅÉJ\ë™íË\hirabayashi_2\Trimmed\Trimmed_Trimmed_ShSs3-51P.trc
DataRate	CameraRate	NumFrames	NumMarkers	Units	OrigDataRate	OrigDataStartFrame	OrigNumFrames
200.00	200.00	      5	51	mm	200.00	860	      1718
Frame#	Time	handRI			handRO			wrRI			wrRO			elbRI			elbRO			shRF			shRU			shRB			handLI			handLO			wrLI			wrLO			elbLI			elbLO			shLF			shLU			shLB			toeR			baRI			baRO			heelR			anRI			anRO			knRI			knRO			troR			toeL			baLI			baLO			heelL			anLI			anLO			knLI			knLO			troL			head			earR			earL			clav			c7			ribR			ribL			xiph			t12			ASISR			ASISL			PSISR			PSISL			ThR			ThL			
		X1	Y1	Z1	X2	Y2	Z2	X3	Y3	Z3	X4	Y4	Z4	X5	Y5	Z5	X6	Y6	Z6	X7	Y7	Z7	X8	Y8	Z8	X9	Y9	Z9	X10	Y10	Z10	X11	Y11	Z11	X12	Y12	Z12	X13	Y13	Z13	X14	Y14	Z14	X15	Y15	Z15	X16	Y16	Z16	X17	Y17	Z17	X18	Y18	Z18	X19	Y19	Z19	X20	Y20	Z20	X21	Y21	Z21	X22	Y22	Z22	X23	Y23	Z23	X24	Y24	Z24	X25	Y25	Z25	X26	Y26	Z26	X27	Y27	Z27	X28	Y28	Z28	X29	Y29	Z29	X30	Y30	Z30	X31	Y31	Z31	X32	Y32	Z32	X33	Y33	Z33	X34	Y34	Z34	X35	Y35	Z35	X36	Y36	Z36	X37	Y37	Z37	X38	Y38	Z38	X39	Y39	Z39	X40	Y40	Z40	X41	Y41	Z41	X42	Y42	Z42	X43	Y43	Z43	X44	Y44	Z44	X45	Y45	Z45	X46	Y46	Z46	X47	Y47	Z47	X48	Y48	Z48	X49	Y49	Z49	X50	Y50	Z50	X51	Y51	Z51	

860	4.295	-584.83685	1576.31604	1627.93164	-610.18524	1667.52893	1652.74573	-627.31860	1557.47632	1689.80481	-685.69348	1620.41174	1692.45288	-725.59998	1498.82849	1941.52893	-676.96136	1558.11316	1932.59216	-832.36707	1534.79358	2151.47510	-807.02979	1630.16052	2187.25537	-739.89691	1636.14087	2269.10132	-1241.17920	1644.00244	1625.13269	-1205.31165	1730.19373	1673.05017	-1205.91016	1626.47302	1696.88330	-1144.21533	1677.36035	1692.79077	-1118.88477	1547.02124	1945.01245	-1163.91296	1618.19275	1946.41223	-999.09204	1565.15210	2152.53198	-1009.44507	1652.99841	2198.12329	-1076.61768	1669.46338	2266.96045	-854.45782	1590.75439	3811.58105	-900.53265	1623.00989	3750.80396	-814.06049	1661.25525	3757.67285	-881.03845	1797.71252	3646.54810	-909.31500	1700.42126	3615.93579	-818.56250	1739.08008	3643.26563	-895.34991	1674.91443	3240.24097	-779.38379	1683.60303	3238.99756	-731.08069	1622.84790	2790.00171	-975.98639	1592.52917	3790.99707	-932.06140	1618.42468	3729.20215	-1010.55505	1672.57190	3749.68823	-923.38550	1801.81763	3641.39209	-916.40973	1712.74353	3614.86279	-994.61957	1757.10059	3645.38892	-923.26721	1681.64429	3223.68359	-1033.86609	1713.32080	3220.38062	-1084.37158	1668.39429	2787.48779	-911.29944	1794.54175	2031.63623	-821.00751	1635.88831	2072.85327	-997.02521	1649.87854	2062.97266	-915.51868	1476.03528	2197.31787	-910.49957	1656.67346	2215.12769	-754.72705	1498.83582	2521.90234	-1082.44128	1540.89465	2540.09668	-921.26080	1400.57019	2409.58521	-897.40253	1644.68018	2518.14087	-789.42957	1503.06482	2731.80420	-1064.07141	1534.22839	2713.91992	-841.97705	1662.12354	2646.59424	-940.70776	1676.52869	2642.95239	-757.32361	1702.51086	2983.56885	-1049.92432	1735.56714	2984.04004	
861	4.300	-584.85907	1576.36719	1627.84265	-610.15228	1667.55542	1652.69324	-627.28607	1557.47925	1689.72864	-685.62671	1620.43152	1692.36060	-725.66254	1498.83362	1941.44592	-676.98999	1558.09778	1932.48608	-832.36261	1534.75671	2151.45190	-806.96301	1630.16077	2187.12573	-739.84015	1636.08582	2269.01074	-1241.18726	1643.99951	1625.12036	-1205.30359	1730.17029	1673.04907	-1205.92615	1626.46606	1696.88245	-1144.25317	1677.33325	1692.74890	-1118.96179	1547.00159	1945.03223	-1163.91162	1618.22681	1946.44385	-999.10693	1565.19250	2152.53369	-1009.38086	1653.07056	2198.10132	-1076.53149	1669.56458	2266.92188	-854.62079	1591.01440	3811.59424	-900.55408	1623.13562	3750.74731	-814.12054	1661.59705	3757.87891	-881.06390	1798.35876	3646.69897	-909.21710	1700.70081	3615.88281	-818.48462	1739.20923	3643.27905	-895.24811	1675.09070	3240.17603	-779.22607	1683.67725	3239.00684	-730.96167	1622.98120	2789.97144	-975.87372	1592.78027	3790.94849	-931.97290	1618.60938	3729.16455	-1010.43970	1672.93152	3749.64063	-923.20306	1802.14246	3641.33472	-916.21936	1713.13281	3614.81763	-994.50745	1757.38770	3645.34595	-923.21564	1681.88416	3223.71460	-1033.80652	1713.73535	3220.36255	-1084.28564	1668.69202	2787.44116	-911.31848	1794.54395	2031.58386	-820.91498	1635.87830	2072.76001	-997.05035	1649.89990	2062.96606	-915.52795	1476.06189	2197.32227	-910.41962	1656.70337	2215.07227	-754.69397	1498.92676	2521.88623	-1082.39197	1541.19592	2540.15308	-921.31848	1400.76135	2409.64136	-897.30811	1644.86450	2518.07568	-789.41211	1503.34546	2731.82544	-1063.99890	1534.51807	2713.94580	-841.88586	1662.33118	2646.53564	-940.58972	1676.79053	2642.95850	-757.15442	1702.61084	2983.52588	-1049.69934	1735.85352	2984.10938	
862	4.305	-584.81378	1576.38721	1627.75757	-610.08917	1667.56775	1652.62463	-627.28491	1557.47290	1689.66565	-685.57172	1620.44812	1692.26001	-725.72113	1498.82642	1941.33374	-677.04431	1558.10217	1932.38159	-832.39343	1534.73669	2151.42236	-806.92944	1630.13806	2187.10913	-739.76556	1636.05737	2268.90625	-1241.19531	1643.99731	1625.10364	-1205.36597	1730.15051	1673.02576	-1205.94128	1626.44275	1696.89368	-1144.30029	1677.35461	1692.77588	-1119.01514	1547.03052	1945.03406	-1163.88843	1618.17017	1946.42737	-999.10101	1565.23376	2152.55835	-1009.36871	1653.21460	2198.02881	-1076.46411	1669.71790	2266.88623	-854.77649	1591.27820	3811.60132	-900.18311	1622.03833	3750.14575	-814.15442	1661.78833	3757.86523	-880.74371	1798.31323	3646.53711	-909.17395	1701.04224	3615.81030	-818.47583	1739.41370	3643.26343	-895.09674	1675.28967	3240.11914	-779.15875	1683.81946	3239.02002	-730.88831	1623.14063	2789.96436	-975.78766	1593.67651	3791.36450	-931.83820	1618.83142	3729.15381	-1010.33435	1673.24976	3749.58179	-923.09412	1802.56274	3641.32104	-916.17816	1713.33191	3614.69824	-994.40662	1757.70801	3645.26123	-923.09253	1682.08923	3223.66113	-1033.72021	1714.05933	3220.28589	-1084.23792	1668.94812	2787.35229	-911.32922	1794.56177	2031.51257	-820.91949	1635.82800	2072.69629	-997.08319	1649.92493	2062.96240	-915.56488	1476.13318	2197.31567	-910.33704	1656.77649	2215.01245	-754.65759	1499.05688	2521.88550	-1082.31519	1541.47327	2540.16357	-921.36206	1400.90442	2409.66748	-897.21307	1645.06140	2518.00684	-789.39368	1503.59961	2731.79858	-1063.95776	1534.77539	2713.94092	-841.74518	1662.55847	2646.43774	-940.46429	1676.98804	2642.94824	-756.95929	1702.75989	2983.48096	-1049.42993	1736.22021	2984.17236	
863	4.310	-584.80292	1576.41211	1627.66760	-610.07233	1667.57605	1652.55261	-627.29791	1557.46240	1689.57910	-685.51379	1620.43103	1692.14063	-725.75555	1498.84326	1941.22827	-677.10468	1558.08716	1932.27600	-832.36139	1534.74194	2151.40430	-806.91516	1630.13684	2187.00830	-739.74963	1636.08948	2268.79785	-1241.20300	1643.99573	1625.08252	-1205.41870	1730.13843	1673.00549	-1205.95935	1626.50769	1696.86169	-1144.31775	1677.33545	1692.72180	-1119.08521	1547.04443	1945.01233	-1163.91589	1618.31433	1946.41589	-999.09814	1565.34326	2152.54395	-1009.32721	1653.28540	2197.99756	-1076.38867	1669.85754	2266.86060	-854.82861	1591.46851	3811.54541	-900.79529	1623.48901	3750.71436	-814.20471	1661.96045	3757.83838	-880.76849	1798.80103	3646.59814	-909.09888	1701.28784	3615.70337	-818.40814	1739.60242	3643.21802	-894.98151	1675.55969	3240.01294	-779.07526	1683.88965	3239.02515	-730.77417	1623.29187	2789.90601	-975.78320	1593.25757	3790.74146	-931.76947	1619.06799	3729.10986	-1010.25391	1673.55212	3749.51050	-922.91663	1802.91077	3641.28027	-916.05103	1713.70593	3614.56006	-994.31390	1758.04297	3645.20020	-922.93463	1682.28381	3223.49316	-1033.58362	1714.43628	3220.22583	-1084.16260	1669.20776	2787.24951	-911.34326	1794.58289	2031.44910	-820.85510	1635.84656	2072.60132	-997.06500	1649.93555	2062.94971	-915.59479	1476.12634	2197.29150	-910.35278	1656.77637	2214.91602	-754.61523	1499.21228	2521.82471	-1082.25122	1541.77588	2540.18481	-921.37799	1401.02698	2409.70752	-897.18469	1645.25964	2517.92163	-789.34491	1503.82471	2731.73730	-1063.91565	1535.07715	2713.90649	-841.61572	1662.80090	2646.37378	-940.31610	1677.20471	2642.95581	-756.79901	1702.92883	2983.44312	-1049.14026	1736.65198	2984.17798	
864	4.315	-584.78369	1576.45081	1627.57263	-610.09344	1667.58557	1652.50671	-627.30084	1557.48682	1689.49280	-685.52130	1620.45154	1692.00439	-725.77490	1498.87170	1941.12415	-677.18036	1558.11462	1932.18213	-832.40363	1534.73792	2151.39282	-806.92029	1630.15710	2186.92065	-739.70667	1636.09485	2268.67480	-1241.21021	1643.99463	1625.05701	-1205.41541	1730.13818	1672.99890	-1205.95728	1626.51563	1696.85303	-1144.30261	1677.37036	1692.71545	-1119.14050	1547.09656	1945.01025	-1163.89099	1618.46008	1946.40356	-999.11554	1565.37866	2152.52954	-1009.31091	1653.41223	2197.95825	-1076.36414	1669.96252	2266.83911	-855.15369	1591.79919	3811.59033	-900.97644	1623.81934	3750.73608	-814.26276	1662.11194	3757.82202	-880.63007	1799.04736	3646.50586	-909.09064	1701.52173	3615.59106	-818.41394	1739.80078	3643.20801	-894.85315	1675.81641	3239.90625	-778.97052	1684.08911	3239.03003	-730.65564	1623.46814	2789.82300	-975.63550	1593.57495	3790.66113	-931.77234	1619.37817	3729.06909	-1010.19244	1673.87744	3749.40332	-922.77087	1803.25830	3641.18018	-915.88599	1713.97620	3614.46094	-994.22595	1758.49060	3645.06396	-922.78937	1682.65088	3223.36450	-1033.48071	1714.75562	3220.09814	-1084.09253	1669.48413	2787.10596	-911.32819	1794.60669	2031.37195	-820.81116	1635.85913	2072.52319	-997.01343	1649.94116	2062.92188	-915.62439	1476.18433	2197.28052	-910.31128	1656.83740	2214.85254	-754.53339	1499.34058	2521.78174	-1082.15051	1541.99329	2540.19067	-921.40735	1401.13708	2409.70630	-897.12579	1645.49036	2517.81714	-789.30969	1504.01636	2731.69946	-1063.84595	1535.34509	2713.81055	-841.48883	1663.05273	2646.34058	-940.06622	1677.39233	2642.91943	-756.65308	1703.15002	2983.35864	-1049.01257	1737.14685	2984.11353	
